<?xml version="1.0" encoding="utf-8"?>
<!-- Generator: Adobe Illustrator 19.0.0, SVG Export Plug-In . SVG Version: 6.00 Build 0)  -->
<svg version="1.1" id="Layer_1" xmlns="http://www.w3.org/2000/svg" xmlns:xlink="http://www.w3.org/1999/xlink" x="0px" y="0px"
	 viewBox="0 0 500 500" style="enable-background:new 0 0 500 500;" xml:space="preserve">
<g id="XMLID_1_">
	<path id="XMLID_2_" d="M174.6,254.4h-7.9V267h6.4c5.7,0,9.4-1.8,9.4-6.2C182.4,256.7,179.5,254.4,174.6,254.4z"/>
	<path id="XMLID_17_" d="M180.5,242c0-3.6-2.6-5.5-6.4-5.5h-7.4v11.3h5.7C177.8,247.7,180.5,245.7,180.5,242z"/>
	<path id="XMLID_20_" d="M325.5,100.7l-10.9-65.4c-2.4-14.6-15-25.2-29.8-25.2h-69.6c-14.8,0-27.4,10.7-29.8,25.2l-10.9,65.4
		c-33.4,0-60.4,27-60.4,60.4v181.2c0,33.4,27,60.4,60.4,60.4l10.9,65.4c2.4,14.6,15,25.2,29.8,25.2h69.6c14.8,0,27.4-10.7,29.8-25.2
		l10.9-65.4c33.4,0,60.4-27,60.4-60.4V161.1C385.9,127.8,358.9,100.7,325.5,100.7z M176.4,274.2h-19.2v-45h19.1
		c8,0,13.5,4.1,13.5,11c0,5.8-3.6,8.9-7.8,9.8v0.4c5.4,0.5,10,4.1,10,10.9C192.1,269.8,185.2,274.2,176.4,274.2z M210.2,274.2h-9.6
		v-45h9.6V274.2z M257.5,274.2h-7.8l-19.2-28.4h-0.4v28.4h-9v-45h7.8l19.2,28.1h0.4v-28.1h9V274.2z M304.2,258.6
		c0,7.4-4.7,16.5-18.2,16.5c-13.4,0-19.3-9-19.3-20.7v-5.5c0-12.3,7.2-20.4,19.5-20.4c11.9,0,17.7,7.6,18,15.4h-9.3
		c-0.6-4.5-4.1-7.2-8.8-7.2c-5.7,0-9.7,3.9-9.7,12.3v5.4c0,7.2,2.8,12.5,9.8,12.5c5.6,0,9-3.5,9-7.6v-2.4h-8.8v-7.1h17.8V258.6z
		 M342.8,237.3h-19.9v10.6h18.7v7.4h-18.7v11h19.9v8h-29.3v-45h29.3V237.3z"/>
</g>
</svg>
