<?xml version="1.0" encoding="utf-8"?>
<!-- Generator: Adobe Illustrator 19.0.0, SVG Export Plug-In . SVG Version: 6.00 Build 0)  -->
<svg version="1.1" id="Layer_1" xmlns="http://www.w3.org/2000/svg" xmlns:xlink="http://www.w3.org/1999/xlink" x="0px" y="0px"
	 viewBox="0 0 500 500" style="enable-background:new 0 0 500 500;" xml:space="preserve">
<style type="text/css">
	.st0{fill:#FFFFFF;}
</style>
<path d="M325.5,100.7l-10.9-65.4c-2.4-14.6-15-25.2-29.8-25.2h-69.6c-14.8,0-27.4,10.7-29.8,25.2l-10.9,65.4
	c-33.4,0-60.4,27-60.4,60.4v181.2c0,33.4,27,60.4,60.4,60.4l10.9,65.4c2.4,14.6,15,25.2,29.8,25.2h69.6c14.8,0,27.4-10.7,29.8-25.2
	l10.9-65.4c33.4,0,60.4-27,60.4-60.4V161.1C385.9,127.8,358.9,100.7,325.5,100.7z"/>
<g>
	<rect x="200.6" y="229.2" class="st0 logotext" width="9.6" height="45"/>
	<path class="st0 logotext" d="M286.1,236.7c4.7,0,8.2,2.7,8.8,7.2h9.3c-0.3-7.8-6.1-15.4-18-15.4c-12.3,0-19.5,8.1-19.5,20.4v5.5
		c0,11.7,5.9,20.7,19.3,20.7c13.5,0,18.2-9.1,18.2-16.5v-8.8h-17.8v7.1h8.8v2.4c0,4.1-3.4,7.6-9,7.6c-7,0-9.8-5.3-9.8-12.5V249
		C276.4,240.6,280.4,236.7,286.1,236.7z"/>
	<polygon class="st0 logotext" points="248.1,257.3 228.9,229.2 221.1,229.2 221.1,274.2 230.1,274.2 230.1,245.8 230.5,245.8 249.7,274.2 
		257.5,274.2 257.5,229.2 248.5,229.2 248.5,257.3 	"/>
	<path class="st0 logotext" d="M189.8,240.2c0-6.9-5.5-11-13.5-11h-19.1v45h19.2c8.8,0,15.7-4.4,15.6-12.9c0-6.8-4.6-10.4-10-10.9V250
		C186.2,249.1,189.8,246,189.8,240.2z M166.7,236.5h7.4c3.8,0,6.4,1.9,6.4,5.5c0,3.7-2.7,5.7-8.1,5.8h-5.7V236.5z M182.5,260.8
		c0,4.4-3.7,6.2-9.4,6.2h-6.4v-12.6h7.9C179.5,254.4,182.4,256.7,182.5,260.8z"/>
	<polygon class="st0 logotext" points="342.8,237.3 342.8,229.3 313.5,229.3 313.5,274.3 342.8,274.3 342.8,266.3 322.9,266.3 322.9,255.3 
		341.6,255.3 341.6,247.9 322.9,247.9 322.9,237.3 	"/>
</g>
</svg>
